# xmcd
#
# Track frame offsets:
#	150
#	15345
#	33640
#	48091
#	65634
#	81486
#	93622
#	109824
#	127503
#	143802
#	159118
#	177144
#	192310
#	209514
#
# Disc length: 3034 seconds
#
# Revision: 1
# Processed by: cddbd v1.5.2PL0 Copyright (c) Steve Scherf et al.
# Submitted via: audiograbber 1.83.01
#
DISCID=b60bd80e
DTITLE=Various Artist - CDX 569
DYEAR=2013
DGENRE=Country
TTITLE0=Joanna Smith - Girls Are Crazy (Single Edi)t
TTITLE1=Hunter Hayes - I Want Crazy
TTITLE2=Lee Brice - Parking Lot Party
TTITLE3=Scotty McCreery - See You Tonight
TTITLE4=Alexandra Lee - Dancin Round The Fire
TTITLE5=Rachele Lynae - Fishin' For Something
TTITLE6=Jason Plummer - Gone
TTITLE7=Mountain Rio - Honey Think I'll Take My Shirt Off Tonight And Dance (Ra
TTITLE7=dio Edit)
TTITLE8=Thomas K. White - I Need A Honky Tonk
TTITLE9=Ali Dee - It Ain't
TTITLE10=Adrianna Freeman - Just A Girl
TTITLE11=Chantal Kuegle - Now That I Get To Drive
TTITLE12=Todd Stanford - Out Of The Picture
TTITLE13=Rachelle Lamb - Strong
EXTD=
EXTT0=
EXTT1=
EXTT2=
EXTT3=
EXTT4=
EXTT5=
EXTT6=
EXTT7=
EXTT8=
EXTT9=
EXTT10=
EXTT11=
EXTT12=
EXTT13=
PLAYORDER=
